<svg xmlns="http://www.w3.org/2000/svg" width="38" height="42" viewBox="0 0 38 42">
    <g fill="#3D3D40" fill-rule="evenodd">
        <path d="M28.62 8.345c-.177 0-.358-.045-.522-.14l-10.746-6.21A1.023 1.023 0 0 1 16.98.59c.289-.49.925-.656 1.42-.37l10.746 6.21c.495.286.662.915.373 1.406a1.04 1.04 0 0 1-.898.51M36.77 20.011c-.573 0-1.038-.46-1.038-1.028v-3.86c0-1.6-.87-3.09-2.268-3.89l-1.627-.93a1.023 1.023 0 0 1-.38-1.405c.287-.492.922-.66 1.419-.376l1.626.93a6.554 6.554 0 0 1 3.307 5.67v3.861c0 .568-.465 1.028-1.039 1.028M19.273 8.028c-.177 0-.356-.044-.52-.139L13.04 4.607a1.023 1.023 0 0 1-.377-1.406 1.044 1.044 0 0 1 1.42-.373l5.712 3.283c.496.285.665.914.377 1.405a1.04 1.04 0 0 1-.899.512M1.577 32.192c-.198 0-.398-.056-.575-.173l-.48-.316a1.022 1.022 0 0 1-.288-1.426c.319-.473.963-.6 1.44-.285l.48.316c.477.315.606.954.288 1.426-.2.297-.53.458-.865.458M32.356 35.356c-.573 0-1.038-.46-1.038-1.028v-4.983c0-.568.465-1.029 1.038-1.029.574 0 1.039.46 1.039 1.029v4.983c0 .568-.465 1.028-1.039 1.028M27.942 37.887c-.573 0-1.038-.46-1.038-1.028V20.203c0-1.6-.87-3.09-2.268-3.89l-3.246-1.858a1.023 1.023 0 0 1-.379-1.405c.288-.491.923-.66 1.42-.375l3.244 1.858a6.554 6.554 0 0 1 3.306 5.67v16.656c0 .568-.465 1.028-1.039 1.028M10.605 13.288c-.176 0-.353-.044-.516-.136L4.097 9.75a1.023 1.023 0 0 1-.384-1.404c.285-.492.92-.663 1.417-.38l5.992 3.4c.498.283.67.912.385 1.404a1.04 1.04 0 0 1-.902.517"/>
        <path d="M23.548 40.102a1.034 1.034 0 0 1-1.038-1.025L22.47 28.4a1.033 1.033 0 0 1 1.034-1.032h.004c.572 0 1.037.458 1.039 1.025l.04 10.678a1.033 1.033 0 0 1-1.035 1.032h-.004zM5.771 20.526c-.179 0-.36-.046-.526-.143L.971 17.892a1.022 1.022 0 0 1-.368-1.408c.291-.49.928-.652 1.422-.364l4.274 2.491c.494.288.66.919.368 1.408a1.04 1.04 0 0 1-.896.507M14.68 39.469h-.002a1.033 1.033 0 0 1-1.036-1.03l.02-10.623a4.496 4.496 0 0 0-2.264-3.884L8.84 22.44a1.023 1.023 0 0 1-.367-1.408c.29-.49.927-.653 1.422-.364l2.55 1.488a6.552 6.552 0 0 1 3.294 5.662l-.02 10.625a1.034 1.034 0 0 1-1.039 1.026"/>
        <path d="M10.286 36.938c-.574 0-1.038-.46-1.038-1.028v-5.554a4.496 4.496 0 0 0-2.261-3.885L.82 22.959a1.023 1.023 0 0 1-.382-1.404c.286-.492.92-.662 1.418-.379l6.17 3.514a6.557 6.557 0 0 1 3.299 5.666v5.554c0 .568-.465 1.028-1.039 1.028"/>
        <path d="M5.891 34.407a1.034 1.034 0 0 1-1.037-.987l-.02-.532a4.498 4.498 0 0 0-2.253-3.88l-.018-.011-1.766-1.069a1.022 1.022 0 0 1-.345-1.413c.3-.485.938-.638 1.428-.342l1.757 1.064a6.558 6.558 0 0 1 3.274 5.63l.019.47a1.032 1.032 0 0 1-1.039 1.07M19.114 32.904c-.573 0-1.038-.46-1.038-1.028v-6.637c0-1.599-.87-3.09-2.269-3.889L.98 12.914a1.023 1.023 0 0 1-.382-1.404c.285-.492.92-.662 1.418-.379l14.828 8.437a6.555 6.555 0 0 1 3.309 5.671v6.637c0 .568-.465 1.028-1.039 1.028M19.154 42c-.57 0-1.034-.455-1.038-1.02l-.04-5.062a1.033 1.033 0 0 1 1.03-1.037 1.033 1.033 0 0 1 1.047 1.02l.04 5.063A1.033 1.033 0 0 1 19.163 42h-.01z"/>
        <path d="M24.567 22.737a6.554 6.554 0 0 0-3.308-5.665l-5.012-2.855 2.836-1.633c.388-.224.574-.658.498-1.072l-.005-.03-.005-.024a1.025 1.025 0 0 0-.493-.68L9.691 5.36a1.044 1.044 0 0 0-1.42.37c-.29.491-.122 1.12.374 1.407l7.874 4.545-2.875 1.655a1.023 1.023 0 0 0 .105 1.83l6.472 3.686c1.4.8 2.269 2.29 2.269 3.89l.02 1.867c.006.564.47 1.017 1.038 1.017h.011a1.033 1.033 0 0 0 1.028-1.04l-.02-1.85zM36.77 21.989a1.04 1.04 0 0 0-.714.283l-2.661 1.54v-6.15a6.556 6.556 0 0 0-3.31-5.672l-6.62-3.747a1.044 1.044 0 0 0-1.418.382 1.023 1.023 0 0 0 .386 1.403l6.617 3.745c1.399.8 2.268 2.29 2.268 3.89v7.845a1.033 1.033 0 0 0 1.174 1.019l.045.003c.178 0 .359-.046.523-.141l2.672-1.547v7.279c0 .567.465 1.028 1.038 1.028.574 0 1.039-.46 1.039-1.028v-9.104c0-.568-.465-1.028-1.039-1.028"/>
    </g>
</svg>
