<?xml version="1.0" encoding="UTF-8"?>
<svg width="76px" height="120px" viewBox="0 0 76 120" version="1.1" xmlns="http://www.w3.org/2000/svg" xmlns:xlink="http://www.w3.org/1999/xlink">
    <!-- Generator: Sketch 47.1 (45422) - http://www.bohemiancoding.com/sketch -->
    <title>lisa-logo / vertical</title>
    <desc>Created with Sketch.</desc>
    <defs></defs>
    <g id="/dynasty" stroke="none" stroke-width="1" fill="none" fill-rule="evenodd">
        <g id="Mobile-0.9" transform="translate(-121.000000, -902.000000)">
            <g id="0" transform="translate(0.000000, 468.000000)">
                <g id="hero" transform="translate(40.000000, 434.000000)">
                    <g id="lisa-logo-/-vertical" transform="translate(81.000000, 0.000000)">
                        <g id="lisa-logo-/-complete">
                            <g>
                                <g id="lisa-logo-/-color">
                                    <g>
                                        <path d="M57.4389722,17.0869529 C57.0820608,17.0869529 56.7206599,16.9943126 56.3902042,16.7996384 L34.8248034,4.08589077 C33.8305502,3.49960075 33.4951241,2.21041055 34.0753857,1.20610546 C34.6554869,0.201962335 35.9322549,-0.137016949 36.9261873,0.449111111 L58.4915882,13.1628588 C59.4858414,13.7489868 59.8214278,15.038177 59.2411662,16.0424821 C58.8537907,16.7129906 58.1558414,17.0869529 57.4389722,17.0869529" id="Fill-2" fill="#00ADE1"></path>
                                        <path d="M73.7953586,40.9755179 C72.644135,40.9755179 71.7109705,40.032919 71.7109705,38.8700565 L71.7109705,30.9653446 C71.7109705,27.6905424 69.9668186,24.6387571 67.1589873,23.0013559 L63.8940338,21.0962373 C62.8972152,20.5144821 62.5560169,19.2267495 63.131789,18.2198531 C63.7075612,17.2129567 64.9825654,16.8683089 65.979384,17.4499021 L69.2438565,19.3548588 C73.3367932,21.7419661 75.8797468,26.190806 75.8797468,30.9653446 L75.8797468,38.8700565 C75.8797468,40.032919 74.9465823,40.9755179 73.7953586,40.9755179" id="Fill-4" fill="#FFD800"></path>
                                        <path d="M38.6793983,16.4391186 C38.3242506,16.4391186 37.9642928,16.3474501 37.6349595,16.1542335 L26.1709848,9.43295292 C25.1752886,8.84925424 24.8366557,7.56087382 25.4146726,6.55511111 C25.9925291,5.5493484 27.2680143,5.20696798 28.2637105,5.79115254 L39.7276852,12.5124331 C40.7233814,13.0961318 41.0620143,14.3845122 40.4839975,15.390275 C40.0972633,16.0633748 39.3980312,16.4391186 38.6793983,16.4391186" id="Fill-6" fill="#00DC82"></path>
                                        <path d="M3.16471055,65.9172994 C2.76739409,65.9172994 2.36590886,65.8027947 2.01044051,65.56342 L1.04841519,64.9155857 C0.0905586498,64.2706667 -0.16822616,62.9634991 0.470237975,61.9959586 C1.10902278,61.0282561 2.40310717,60.7670169 3.36080338,61.4120979 L4.32282869,62.0599322 C5.28068523,62.7048512 5.53963038,64.0120188 4.90100591,64.9795593 C4.49936034,65.5881996 3.83828861,65.9172994 3.16471055,65.9172994" id="Fill-8" fill="#00ADE1"></path>
                                        <path d="M64.9367089,72.3954802 C63.7854852,72.3954802 62.8523207,71.4528814 62.8523207,70.2900188 L62.8523207,60.086629 C62.8523207,58.9237665 63.7854852,57.9811676 64.9367089,57.9811676 C66.0879325,57.9811676 67.021097,58.9237665 67.021097,60.086629 L67.021097,70.2900188 C67.021097,71.4528814 66.0879325,72.3954802 64.9367089,72.3954802" id="Fill-10" fill="#FF6592"></path>
                                        <path d="M56.0780591,77.5781544 C54.9268354,77.5781544 53.9936709,76.6355556 53.9936709,75.472693 L53.9936709,41.3674576 C53.9936709,38.0924934 52.249519,35.0407081 49.4416878,33.4034689 L42.9289367,29.5984143 C41.9324388,29.0163352 41.5918819,27.7282787 42.1682954,26.7217062 C42.7445485,25.7151337 44.0198734,25.3714576 45.016211,25.9533748 L51.527519,29.7574576 C55.6194937,32.1439171 58.1624473,36.5927571 58.1624473,41.3674576 L58.1624473,75.472693 C58.1624473,76.6355556 57.2292827,77.5781544 56.0780591,77.5781544" id="Fill-12" fill="#00ADE1"></path>
                                        <path d="M21.282854,27.2093635 C20.9312338,27.2093635 20.5749637,27.1194765 20.2480354,26.9301469 L8.22271899,19.9659284 C7.22397637,19.3875744 6.87860928,18.1009755 7.45117468,17.0921356 C8.02390042,16.0834576 9.29778228,15.7344369 10.2962042,16.312791 L22.3215207,23.2770094 C23.3202633,23.8553635 23.6656304,25.1419623 23.093065,26.1508023 C22.7079342,26.8294087 22.005335,27.2093635 21.282854,27.2093635" id="Fill-14" fill="#FF6592"></path>
                                        <path d="M47.2593333,82.1129944 C46.1117975,82.1129944 45.1794346,81.1755782 45.1751055,80.015307 L45.0949367,58.1509002 C45.0907679,56.9880377 46.0204051,56.0418757 47.1716287,56.0376648 L47.1794852,56.0376648 C48.3270211,56.0376648 49.259384,56.975081 49.2637131,58.1353522 L49.3438819,79.9997589 C49.3480506,81.1626215 48.4184135,82.1087834 47.2671899,82.1129944 L47.2593333,82.1129944 Z" id="Fill-16" fill="#00DC82"></path>
                                        <path d="M11.5824321,42.0285725 C11.2229553,42.0285725 10.858989,41.9346365 10.52693,41.7370471 L1.94887089,36.6353522 C0.95670211,36.0454991 0.626086076,34.7548512 1.21019578,33.7528136 C1.79430549,32.7507759 3.07203544,32.4169793 4.06388354,33.0066704 L12.6419426,38.1085273 C13.6339511,38.6983804 13.9645671,39.9890282 13.3806177,40.9910659 C12.9921198,41.6576874 12.2965755,42.0285725 11.5824321,42.0285725" id="Fill-18" fill="#00DC82"></path>
                                        <path d="M29.4621055,80.8173258 L29.458097,80.8173258 C28.3068734,80.8150584 27.3754726,79.870678 27.3777173,78.7079774 L27.4178017,56.9571036 C27.4178017,53.6908851 25.6773376,50.6415292 22.8754388,49.0026704 L17.7415907,45.9478079 C16.7497426,45.3576309 16.4192869,44.0669831 17.0037173,43.0649454 C17.587827,42.0630697 18.8657173,41.7292731 19.8575654,42.3196121 L24.9779451,45.3665386 C29.0490759,47.7474915 31.5865781,52.1934162 31.5865781,56.9609906 L31.5464937,78.7157514 C31.5442489,79.8771563 30.6114051,80.8173258 29.4621055,80.8173258" id="Fill-20" fill="#00DC82"></path>
                                        <path d="M20.6434599,75.6346516 C19.4922363,75.6346516 18.5590717,74.6920527 18.5590717,73.5291902 L18.5590717,62.1566215 C18.5590717,58.8891073 16.820692,55.8410471 14.022481,54.2018644 L1.64650633,47.0115518 C0.648565401,46.4317401 0.304801688,45.1446554 0.878810127,44.1367872 C1.45281857,43.1287571 2.72686076,42.781194 3.72480169,43.3613296 L16.1073502,50.5553672 C20.1935527,52.9491149 22.7278481,57.3929341 22.7278481,62.1566215 L22.7278481,73.5291902 C22.7278481,74.6920527 21.7946835,75.6346516 20.6434599,75.6346516" id="Fill-22" fill="#00ADE1"></path>
                                        <path d="M11.8234034,70.4519774 C10.7109814,70.4519774 9.78743713,69.5644444 9.74222194,68.4312203 L9.70037384,67.341887 C9.70037384,64.0823089 7.96840759,61.0379736 5.18029789,59.3965235 L5.14293924,59.3741733 L1.59867764,57.1864369 C0.616449789,56.580064 0.306837975,55.2842335 0.907141772,54.2920753 C1.50744557,53.2997552 2.79046667,52.9871751 3.77253418,53.5932241 L7.29899831,55.7701092 C11.339665,58.1580264 13.8534371,62.5697778 13.8691502,67.2975104 L13.9076312,68.2618117 C13.9539688,69.4235405 13.0591249,70.4033898 11.9088633,70.4501959 C11.8801629,70.4514915 11.8517831,70.4519774 11.8234034,70.4519774" id="Fill-24" fill="#00DC82"></path>
                                        <path d="M38.3607595,67.3747646 C37.2095359,67.3747646 36.2763713,66.4321657 36.2763713,65.2693032 L36.2763713,51.6808173 C36.2763713,48.4058531 34.5322194,45.3542298 31.7243882,43.7166667 L1.96766245,26.4431375 C0.969561181,25.8638117 0.625476793,24.5768889 1.19916456,23.5685348 C1.77269198,22.5605047 3.04657384,22.2127797 4.04499578,22.7922674 L33.8050886,40.0679021 C37.9021941,42.4572768 40.4451477,46.9062787 40.4451477,51.6808173 L40.4451477,65.2693032 C40.4451477,66.4321657 39.5119831,67.3747646 38.3607595,67.3747646" id="Fill-26" fill="#00ADE1"></path>
                                        <path d="M38.4405435,86 C37.297016,86 36.3656152,85.0682524 36.3566363,83.9110584 L36.2764675,73.54571 C36.2674886,72.3828475 37.1932776,71.4329605 38.3445013,71.4237288 C39.5008557,71.4183842 40.4361046,72.3499699 40.4450835,73.5126704 L40.5252523,83.8780188 C40.5342312,85.0408814 39.6084422,85.9907684 38.4572186,86 L38.4405435,86 Z" id="Fill-28" fill="#00DC82"></path>
                                        <path d="M49.3037975,46.5569179 C49.299789,41.7865902 46.7576371,37.342933 42.6647004,34.9561495 L32.6075274,29.1107409 L38.2972658,25.7669443 C39.0761857,25.3090874 39.4496118,24.4197729 39.2982532,23.5728915 C39.2950464,23.551513 39.2908776,23.5302964 39.2870295,23.5089179 C39.2836624,23.492884 39.280616,23.4768501 39.2767679,23.4609782 C39.1606835,22.8970384 38.8194852,22.38282 38.2881266,22.069916 L19.4484641,10.975754 C18.4540506,10.3899499 17.1776034,10.729739 16.5979831,11.734368 C16.0182025,12.738835 16.3544304,14.0280252 17.3490042,14.6136674 L33.1515527,23.9193209 L27.3822869,27.3099235 C26.3872321,27.894594 26.0498819,29.1834603 26.6288608,30.1885751 C26.8599072,30.5897465 27.2030295,30.8820817 27.5939325,31.0550535 L40.583038,38.6044282 C43.3908692,40.2418294 45.1350211,43.2936147 45.1350211,46.5684169 L45.1752658,50.3916109 C45.1874515,51.5466994 46.118211,52.4745601 47.2590127,52.4745601 C47.2665485,52.4745601 47.2742447,52.4745601 47.2817806,52.4743981 C48.4328439,52.4620893 49.3560675,51.509449 49.3437215,50.3465864 L49.3037975,46.5569179 Z" id="Fill-30" fill="#00DC82"></path>
                                        <path d="M73.7953586,45.0244821 C73.239308,45.0244821 72.7355274,45.2457175 72.3617806,45.6041318 L67.021097,48.7595706 L67.021097,36.1664821 C67.021097,31.3917815 64.4781435,26.9427797 60.3770295,24.5511375 L47.0916203,16.8783503 C46.0920759,16.300968 44.8188354,16.6516083 44.2473924,17.661096 C43.6761097,18.6705838 44.0229198,19.9568588 45.0223038,20.5340791 L58.3003376,28.2023315 C61.1081688,29.8398945 62.8523207,32.8913559 62.8523207,36.1664821 L62.8523207,52.2316384 C62.8523207,53.3945009 63.7854852,54.3370998 64.9367089,54.3370998 C65.029384,54.3370998 65.1199747,54.3288399 65.209443,54.3170169 C65.2395865,54.3183126 65.2692489,54.3228475 65.2993924,54.3228475 C65.6567848,54.3228475 66.0189873,54.2298832 66.3497637,54.0345612 L71.7109705,50.8669755 L71.7109705,65.770565 C71.7109705,66.9332655 72.644135,67.8760264 73.7953586,67.8760264 C74.9465823,67.8760264 75.8797468,66.9332655 75.8797468,65.770565 L75.8797468,47.1299435 C75.8797468,45.967081 74.9465823,45.0244821 73.7953586,45.0244821" id="Fill-32" fill="#00DC82"></path>
                                    </g>
                                </g>
                                <path d="M14.3369507,116.818488 L7.74656876,116.818488 L7.74656876,104.196046 L5.33076923,104.196046 L5.33076923,119.028444 L14.3369507,119.028444 L14.3369507,116.818488 Z M32.3122513,119.028444 L32.3122513,116.89044 L29.3202987,116.89044 L29.3202987,106.334049 L32.3122513,106.334049 L32.3122513,104.196046 L23.8822228,104.196046 L23.8822228,106.334049 L26.8741753,106.334049 L26.8741753,116.89044 L23.8822228,116.89044 L23.8822228,119.028444 L32.3122513,119.028444 Z M41.6654723,114.958014 C41.7867677,117.671634 43.8184652,119.326531 47.0125767,119.326531 C50.2774439,119.326531 52.2990334,117.589403 52.2990334,114.772995 C52.2990334,112.521924 51.0860797,111.247345 48.2659623,110.579219 L46.8609575,110.240017 C45.1527143,109.839141 44.445158,109.191573 44.445158,108.050619 C44.445158,106.765762 45.4256289,105.994847 47.0429006,105.994847 C48.5793086,105.994847 49.5799955,106.796598 49.7113988,108.153408 L52.0362268,108.153408 C51.9452553,105.583693 49.9539895,103.897959 47.0226847,103.897959 C43.9599765,103.897959 41.9990346,105.60425 41.9990346,108.266475 C41.9990346,110.445594 43.272636,111.812683 45.9411343,112.460251 L47.346139,112.799453 C49.1453537,113.231166 49.873126,113.868455 49.873126,114.988851 C49.873126,116.35594 48.7713596,117.229643 47.0530085,117.229643 C45.2740097,117.229643 44.1419195,116.386776 44.0004083,114.958014 L41.6654723,114.958014 Z M63.9063268,113.159214 L67.4643245,113.159214 L65.7459733,106.796598 L65.6448939,106.796598 L63.9063268,113.159214 Z M69.0512723,119.028444 L68.0000457,115.132755 L63.3706056,115.132755 L62.3092711,119.028444 L59.8631477,119.028444 L64.3611845,104.196046 L67.171194,104.196046 L71.6692308,119.028444 L69.0512723,119.028444 Z" id="Lisa" fill="#FFFFFF"></path>
                            </g>
                        </g>
                    </g>
                </g>
            </g>
        </g>
    </g>
</svg>