<svg xmlns="http://www.w3.org/2000/svg" width="79" height="20" viewBox="0 0 79 20">
    <path fill="#121112" fill-rule="evenodd" d="M5.425 12.346c2.383 0 4.328-1.4 4.328-4.557 0-3.157-1.945-4.58-4.328-4.58H3.414v9.137h2.011zM0 15.802V0h5.622c4.66 0 7.788 3.031 7.788 7.912 0 4.882-3.128 7.89-7.81 7.89H0zM15.535 20l2.5-5.74L13.41 4.69h3.762l2.678 5.92 2.434-5.92h3.562L19.075 20h-3.54zm14.131-4.198h-3.333V4.734h3.224v1.27c.592-1.047 1.93-1.56 3.048-1.56 2.741 0 3.97 1.983 3.97 4.41v6.948H33.24v-6.37c0-1.09-.57-1.914-1.777-1.914-1.096 0-1.798.824-1.798 1.937v6.347zm16.037-1.473c-.485 1.058-1.587 1.72-2.953 1.72-3.218 0-5.444-2.448-5.444-5.824 0-3.265 2.094-5.78 5.334-5.78 1.961 0 2.82 1.08 3.041 1.588V4.775h3.24v9.002c0 1.015.066 1.721.088 1.964h-3.218a9.505 9.505 0 0 1-.088-1.302v-.11zm7.134-2.221c.044.749.575 1.475 1.724 1.475.863 0 1.283-.462 1.283-.947 0-.396-.266-.726-1.083-.903l-1.26-.286c-2.345-.506-3.273-1.828-3.273-3.369 0-2.004 1.769-3.634 4.223-3.634 3.184 0 4.29 1.982 4.4 3.26l-2.786.506c-.089-.727-.553-1.343-1.57-1.343-.64 0-1.194.374-1.194.946 0 .463.376.728.862.816l1.46.286c2.277.462 3.383 1.828 3.383 3.435 0 1.872-1.437 3.7-4.378 3.7-3.45 0-4.555-2.225-4.643-3.436l2.852-.506zm11.366-7.382h2.118v2.976h-2.118v4.163c0 .917.48 1.163 1.2 1.163.35 0 .678-.067.874-.112v2.82c-.13.067-.677.313-1.724.313-2.25 0-3.625-1.365-3.625-3.58V7.702h-1.922V4.726h.546c1.136 0 1.681-.783 1.681-1.812V1.48h2.97v3.245zM68.69 20l2.5-5.74-4.624-9.569h3.761l2.678 5.92 2.434-5.92H79L72.23 20h-3.541zm-25.52-6.914c1.31 0 2.427-1.081 2.427-2.974 0-1.938-1.096-2.952-2.428-2.952-1.396 0-2.449 1.014-2.449 2.952 0 1.848 1.096 2.974 2.45 2.974z"/>
</svg>
